<svg id="visual" viewBox="0 0 1500 200" width="1500" height="200" xmlns="http://www.w3.org/2000/svg" xmlns:xlink="http://www.w3.org/1999/xlink" version="1.1"><g stroke-width="1" stroke-linejoin="bevel"><path d="M783.8 81.7L764 0L743 37.7Z" fill="#8ec2bf" stroke="#8ec2bf"></path><path d="M783.8 81.7L815.8 0L764 0Z" fill="#bee0de" stroke="#bee0de"></path><path d="M905.8 115.3L910.5 0L815.8 0Z" fill="#6eaeab" stroke="#6eaeab"></path><path d="M743 37.7L695.3 140.3L783.8 81.7Z" fill="#9eccc9" stroke="#9eccc9"></path><path d="M783.8 81.7L905.8 115.3L815.8 0Z" fill="#5da4a1" stroke="#5da4a1"></path><path d="M895.8 200L905.8 115.3L783.8 81.7Z" fill="#aed6d3" stroke="#aed6d3"></path><path d="M764 0L627.5 0L743 37.7Z" fill="#8ec2bf" stroke="#8ec2bf"></path><path d="M743 37.7L627.5 0L695.3 140.3Z" fill="#aed6d3" stroke="#aed6d3"></path><path d="M905.8 115.3L948.5 94.7L910.5 0Z" fill="#5da4a1" stroke="#5da4a1"></path><path d="M704 200L715 201.3L695.3 140.3Z" fill="#bee0de" stroke="#bee0de"></path><path d="M695.3 140.3L715 201.3L783.8 81.7Z" fill="#9eccc9" stroke="#9eccc9"></path><path d="M655.3 200L704 200L695.3 140.3Z" fill="#8ec2bf" stroke="#8ec2bf"></path><path d="M948.5 94.7L975.3 52.7L910.5 0Z" fill="#aed6d3" stroke="#aed6d3"></path><path d="M963.5 86.3L975.3 52.7L948.5 94.7Z" fill="#5da4a1" stroke="#5da4a1"></path><path d="M627.5 0L586.5 66.3L695.3 140.3Z" fill="#7eb8b5" stroke="#7eb8b5"></path><path d="M905.8 115.3L927.5 200L948.5 94.7Z" fill="#ceebe8" stroke="#ceebe8"></path><path d="M948.5 94.7L1005.3 138.3L963.5 86.3Z" fill="#9eccc9" stroke="#9eccc9"></path><path d="M715 201.3L895.8 200L783.8 81.7Z" fill="#4b9b97" stroke="#4b9b97"></path><path d="M594.3 22.7L586.5 66.3L627.5 0Z" fill="#9eccc9" stroke="#9eccc9"></path><path d="M627.5 0L587.3 0L594.3 22.7Z" fill="#4b9b97" stroke="#4b9b97"></path><path d="M537.8 18.7L548.5 96.7L586.5 66.3Z" fill="#7eb8b5" stroke="#7eb8b5"></path><path d="M704 200L655.3 200L715 201.3Z" fill="#ceebe8" stroke="#ceebe8"></path><path d="M591.5 200L655.3 200L695.3 140.3Z" fill="#def5f3" stroke="#def5f3"></path><path d="M715 201.3L927.5 200L895.8 200Z" fill="#4b9b97" stroke="#4b9b97"></path><path d="M895.8 200L927.5 200L905.8 115.3Z" fill="#9eccc9" stroke="#9eccc9"></path><path d="M1072 36.7L1001.3 0L975.3 52.7Z" fill="#8ec2bf" stroke="#8ec2bf"></path><path d="M1005.3 138.3L975.3 52.7L963.5 86.3Z" fill="#37918d" stroke="#37918d"></path><path d="M975.3 52.7L1001.3 0L910.5 0Z" fill="#37918d" stroke="#37918d"></path><path d="M927.5 200L1005.3 138.3L948.5 94.7Z" fill="#bee0de" stroke="#bee0de"></path><path d="M537.8 18.7L586.5 66.3L594.3 22.7Z" fill="#37918d" stroke="#37918d"></path><path d="M586.5 66.3L591.5 200L695.3 140.3Z" fill="#9eccc9" stroke="#9eccc9"></path><path d="M587.3 0L537.8 18.7L594.3 22.7Z" fill="#5da4a1" stroke="#5da4a1"></path><path d="M655.3 200L591.5 200L715 201.3Z" fill="#9eccc9" stroke="#9eccc9"></path><path d="M548.5 96.7L591.5 200L586.5 66.3Z" fill="#4b9b97" stroke="#4b9b97"></path><path d="M587.3 0L517.8 0L537.8 18.7Z" fill="#bee0de" stroke="#bee0de"></path><path d="M537.8 18.7L418.8 108.3L548.5 96.7Z" fill="#7eb8b5" stroke="#7eb8b5"></path><path d="M1005.3 138.3L1072 36.7L975.3 52.7Z" fill="#37918d" stroke="#37918d"></path><path d="M927.5 200L1041.3 200L1005.3 138.3Z" fill="#5da4a1" stroke="#5da4a1"></path><path d="M1005.3 138.3L1095 160.3L1072 36.7Z" fill="#def5f3" stroke="#def5f3"></path><path d="M715 201.3L1041.3 200L927.5 200Z" fill="#aed6d3" stroke="#aed6d3"></path><path d="M1041.3 200L1095 160.3L1005.3 138.3Z" fill="#9eccc9" stroke="#9eccc9"></path><path d="M418.8 108.3L488.8 200L548.5 96.7Z" fill="#4b9b97" stroke="#4b9b97"></path><path d="M548.5 96.7L488.8 200L591.5 200Z" fill="#37918d" stroke="#37918d"></path><path d="M591.5 200L488.8 200L715 201.3Z" fill="#4b9b97" stroke="#4b9b97"></path><path d="M715 201.3L1089 200L1041.3 200Z" fill="#37918d" stroke="#37918d"></path><path d="M1041.3 200L1089 200L1095 160.3Z" fill="#4b9b97" stroke="#4b9b97"></path><path d="M1185.8 97.7L1129 0L1072 36.7Z" fill="#4b9b97" stroke="#4b9b97"></path><path d="M1072 36.7L1129 0L1001.3 0Z" fill="#7eb8b5" stroke="#7eb8b5"></path><path d="M1160.8 0L1129 0L1185.8 97.7Z" fill="#37918d" stroke="#37918d"></path><path d="M517.8 0L418.8 108.3L537.8 18.7Z" fill="#9eccc9" stroke="#9eccc9"></path><path d="M1185.8 97.7L1072 36.7L1095 160.3Z" fill="#bee0de" stroke="#bee0de"></path><path d="M1255.8 200L1185.8 97.7L1095 160.3Z" fill="#37918d" stroke="#37918d"></path><path d="M517.8 0L372 0L418.8 108.3Z" fill="#4b9b97" stroke="#4b9b97"></path><path d="M372 0L362 97.3L418.8 108.3Z" fill="#37918d" stroke="#37918d"></path><path d="M418.8 108.3L358 200L488.8 200Z" fill="#aed6d3" stroke="#aed6d3"></path><path d="M372 0L354 2.7L362 97.3Z" fill="#5da4a1" stroke="#5da4a1"></path><path d="M354 2.7L333.3 86.7L362 97.3Z" fill="#6eaeab" stroke="#6eaeab"></path><path d="M362 97.3L358 200L418.8 108.3Z" fill="#def5f3" stroke="#def5f3"></path><path d="M350.3 200L358 200L362 97.3Z" fill="#37918d" stroke="#37918d"></path><path d="M488.8 200L358 200L715 201.3Z" fill="#5da4a1" stroke="#5da4a1"></path><path d="M1309.5 79.3L1250.5 34.7L1185.8 97.7Z" fill="#ceebe8" stroke="#ceebe8"></path><path d="M1185.8 97.7L1250.5 34.7L1160.8 0Z" fill="#4b9b97" stroke="#4b9b97"></path><path d="M1250.5 34.7L1250.5 0L1160.8 0Z" fill="#8ec2bf" stroke="#8ec2bf"></path><path d="M333.3 86.7L350.3 200L362 97.3Z" fill="#8ec2bf" stroke="#8ec2bf"></path><path d="M358 200L350.3 200L715 201.3Z" fill="#def5f3" stroke="#def5f3"></path><path d="M354 2.7L305.3 77.3L333.3 86.7Z" fill="#def5f3" stroke="#def5f3"></path><path d="M333.3 86.7L246.5 182.3L350.3 200Z" fill="#8ec2bf" stroke="#8ec2bf"></path><path d="M715 201.3L1255.8 200L1089 200Z" fill="#7eb8b5" stroke="#7eb8b5"></path><path d="M1089 200L1255.8 200L1095 160.3Z" fill="#6eaeab" stroke="#6eaeab"></path><path d="M1250.5 34.7L1309.5 79.3L1250.5 0Z" fill="#def5f3" stroke="#def5f3"></path><path d="M1255.8 200L1276.8 162.3L1185.8 97.7Z" fill="#aed6d3" stroke="#aed6d3"></path><path d="M1276.8 162.3L1309.5 79.3L1185.8 97.7Z" fill="#bee0de" stroke="#bee0de"></path><path d="M305.3 77.3L246.5 182.3L333.3 86.7Z" fill="#bee0de" stroke="#bee0de"></path><path d="M372 0L224.5 0L354 2.7Z" fill="#ceebe8" stroke="#ceebe8"></path><path d="M354 2.7L224.5 0L305.3 77.3Z" fill="#ceebe8" stroke="#ceebe8"></path><path d="M305.3 77.3L223.3 0L246.5 182.3Z" fill="#4b9b97" stroke="#4b9b97"></path><path d="M224.5 0L223.3 0L305.3 77.3Z" fill="#5da4a1" stroke="#5da4a1"></path><path d="M715 201.3L1343.3 200L1255.8 200Z" fill="#6eaeab" stroke="#6eaeab"></path><path d="M1255.8 200L1343.3 200L1276.8 162.3Z" fill="#ceebe8" stroke="#ceebe8"></path><path d="M1276.8 162.3L1343.3 200L1309.5 79.3Z" fill="#def5f3" stroke="#def5f3"></path><path d="M715 201.3L1374.5 200L1343.3 200Z" fill="#bee0de" stroke="#bee0de"></path><path d="M1343.3 200L1374.5 200L1309.5 79.3Z" fill="#4b9b97" stroke="#4b9b97"></path><path d="M1409.3 0L1407.3 -1.3L1309.5 79.3Z" fill="#ceebe8" stroke="#ceebe8"></path><path d="M1309.5 79.3L1407.3 -1.3L1250.5 0Z" fill="#7eb8b5" stroke="#7eb8b5"></path><path d="M1250.5 0L1407.3 -1.3L1160.8 0Z" fill="#7eb8b5" stroke="#7eb8b5"></path><path d="M1160.8 0L1407.3 -1.3L1129 0Z" fill="#def5f3" stroke="#def5f3"></path><path d="M1129 0L1407.3 -1.3L1001.3 0Z" fill="#4b9b97" stroke="#4b9b97"></path><path d="M1001.3 0L1407.3 -1.3L910.5 0Z" fill="#aed6d3" stroke="#aed6d3"></path><path d="M910.5 0L1407.3 -1.3L815.8 0Z" fill="#9eccc9" stroke="#9eccc9"></path><path d="M815.8 0L1407.3 -1.3L764 0Z" fill="#6eaeab" stroke="#6eaeab"></path><path d="M764 0L1407.3 -1.3L627.5 0Z" fill="#aed6d3" stroke="#aed6d3"></path><path d="M627.5 0L1407.3 -1.3L587.3 0Z" fill="#aed6d3" stroke="#aed6d3"></path><path d="M587.3 0L1407.3 -1.3L517.8 0Z" fill="#8ec2bf" stroke="#8ec2bf"></path><path d="M517.8 0L1407.3 -1.3L372 0Z" fill="#37918d" stroke="#37918d"></path><path d="M372 0L1407.3 -1.3L224.5 0Z" fill="#ceebe8" stroke="#ceebe8"></path><path d="M224.5 0L1407.3 -1.3L223.3 0Z" fill="#4b9b97" stroke="#4b9b97"></path><path d="M1434.3 137.3L1409.3 0L1309.5 79.3Z" fill="#7eb8b5" stroke="#7eb8b5"></path><path d="M1374.5 200L1434.3 137.3L1309.5 79.3Z" fill="#aed6d3" stroke="#aed6d3"></path><path d="M118.8 58.7L151.5 200L246.5 182.3Z" fill="#ceebe8" stroke="#ceebe8"></path><path d="M246.5 182.3L151.5 200L350.3 200Z" fill="#5da4a1" stroke="#5da4a1"></path><path d="M350.3 200L151.5 200L715 201.3Z" fill="#bee0de" stroke="#bee0de"></path><path d="M223.3 0L118.8 58.7L246.5 182.3Z" fill="#5da4a1" stroke="#5da4a1"></path><path d="M120.5 31.7L118.8 58.7L223.3 0Z" fill="#37918d" stroke="#37918d"></path><path d="M118.8 58.7L127.8 200L151.5 200Z" fill="#9eccc9" stroke="#9eccc9"></path><path d="M151.5 200L127.8 200L715 201.3Z" fill="#7eb8b5" stroke="#7eb8b5"></path><path d="M1500 91.3L1500 0L1409.3 0Z" fill="#5da4a1" stroke="#5da4a1"></path><path d="M1409.3 0L1500 0L1407.3 -1.3Z" fill="#def5f3" stroke="#def5f3"></path><path d="M1500 131.7L1500 91.3L1434.3 137.3Z" fill="#def5f3" stroke="#def5f3"></path><path d="M1434.3 137.3L1500 91.3L1409.3 0Z" fill="#8ec2bf" stroke="#8ec2bf"></path><path d="M120.5 31.7L72.8 83.3L118.8 58.7Z" fill="#8ec2bf" stroke="#8ec2bf"></path><path d="M118.8 58.7L72.8 83.3L127.8 200Z" fill="#6eaeab" stroke="#6eaeab"></path><path d="M1500 200L1500 131.7L1434.3 137.3Z" fill="#8ec2bf" stroke="#8ec2bf"></path><path d="M715 201.3L1500 200L1374.5 200Z" fill="#9eccc9" stroke="#9eccc9"></path><path d="M1374.5 200L1500 200L1434.3 137.3Z" fill="#6eaeab" stroke="#6eaeab"></path><path d="M223.3 0L46.8 0L120.5 31.7Z" fill="#5da4a1" stroke="#5da4a1"></path><path d="M120.5 31.7L46.8 0L72.8 83.3Z" fill="#4b9b97" stroke="#4b9b97"></path><path d="M1407.3 -1.3L46.8 0L223.3 0Z" fill="#9eccc9" stroke="#9eccc9"></path><path d="M1407.3 -1.3L0 0L46.8 0Z" fill="#6eaeab" stroke="#6eaeab"></path><path d="M46.8 0L0 87.3L72.8 83.3Z" fill="#4b9b97" stroke="#4b9b97"></path><path d="M72.8 83.3L0 135.7L127.8 200Z" fill="#6eaeab" stroke="#6eaeab"></path><path d="M0 0L0 87.3L46.8 0Z" fill="#def5f3" stroke="#def5f3"></path><path d="M0 87.3L0 135.7L72.8 83.3Z" fill="#7eb8b5" stroke="#7eb8b5"></path><path d="M0 135.7L0 200L127.8 200Z" fill="#37918d" stroke="#37918d"></path><path d="M127.8 200L0 200L715 201.3Z" fill="#9eccc9" stroke="#9eccc9"></path></g></svg>